/* XPM */
static char *Array[] = {
/* width height num_colors chars_per_pixel */
"    16    15        7            1",
/* colors */
". c #800000",
"# c #0000ff",
"a c #808000",
"b c #000080",
"c c #008080",
"d c #808080",
"e c #c0c0c0",
/* pixels */
"..###aaa###dddcc",
"..###aaa###dddcc",
"..###aaa###dddcc",
"ccaaacccbbbaaa##",
"ccaaacccbbbaaa##",
"ccaaacccbbbaaa##",
"ddbbb...eee...bb",
"ddbbb...eee...bb",
"ddbbb...eee...bb",
"bbeee###aaaddd##",
"bbeee###aaaddd##",
"bbeee###aaaddd##",
"##aaabbb...bbbdd",
"##aaabbb...bbbdd",
"##aaabbb...bbbdd"};
