/* XPM */
static char *Attribute[] = {
"16 16 3 1",
/* colors */
". c None",
"# c #000000",
"b c #0000ff",
/* pixels */
"................",
"..#####.........",
"..#bbbb###......",
"..#bbbbbbb##....",
"..#bbbbbbbbbb...",
"..#bbbbbbbbbb...",
"..#bbbbbbb......",
"..#bbbb.........",
"..#b............",
"..#b............",
"..#b............",
"..#b............",
"..#b............",
"...b............",
"................",
"................"};
