/* XPM */
static char *Table[] = {
"16 15 4 1",
/* colors */
". c #000080",
"# c #c0c0c0",
"a c #ffffff",
"b c #000000",
/* pixels */
"################",
"#...............",
"#.aa.aaaaaaaaaa.",
"#.aa.aaaaaaaaaa.",
"#...............",
"#.aa.aa.aa.bb.a.",
"#.aa.aa.aa.bb.a.",
"#...............",
"#.aa.aa.aa.bb.a.",
"#.aa.aa.aa.bb.a.",
"#...............",
"#.aa.aa.aa.bb.a.",
"#.aa.aa.aa.bb.a.",
"#...............",
"#.aa.aa.aa.bb.a.",
"#..............."};
