/* XPM */
static char *DataSet[] = {
"16    16        5            1",
/* colors */
". c None",
"# c #000000",
"a c #0000ff",
"b c #7b7b7e",
"c c #0000c5",
/* pixels */
".....##...#.....",
"...##aa###a##...",
".##aa##bc##aa##.",
"#aa##bbbccc##aa#",
"###bbbbbccccc###",
".#a##bbbccc###..",
".#aaa##bc##cc#..",
".#aaaaa##cccc#..",
".#aaaaaaccccc#..",
".#aaaaaaccccc#..",
".#aaaaaaccccc#..",
".#aaaaaaccccc#..",
".#caaaaacccc##..",
"..##caaacc##....",
"....##ca##......",
"......##........"};
