/* XPM */
static char *FolderNew[] = {
/* width height num_colors chars_per_pixel */
"    16    15        5            1",
/* colors */
". c #000000",
"# c #808080",
"a c #c0c0c0",
"b c #ffff00",
"c c #ffffff",
/* pixels */
"aaaaaaaaaaaaaaaa",
"aaaaaaaaaaaa.aaa",
"aaaaaaaaaa.a.a.a",
"aa####aaaaa...aa",
"a#bcbc#aa...a...",
"a###########..aa",
"a#ccccccccccc..a",
"a#cbabababab#.aa",
"a#cababababa#.aa",
"a#cbabababab#.aa",
"a#cababababa#.aa",
"a#cbabababab#.aa",
"a############.aa",
"a............aaa",
"aaaaaaaaaaaaaaaa"
};
