/* XPM */
static char *FolderUp[] = {
/* width height num_colors chars_per_pixel */
"    16    15        5            1",
/* colors */
". c #000000",
"# c #808080",
"a c #c0c0c0",
"b c #ffff00",
"c c #ffffff",
/* pixels */
"aaaaaaaaaaaaaaaa",
"aa####aaaaaaaaaa",
"a#bcbc#aaaaaaaaa",
"a#############aa",
"a#cccccccccccc.a",
"a#cba.abababa#.a",
"a#ca...ababab#.a",
"a#c.a.a.ababa#.a",
"a#cab.bababab#.a",
"a#cba.abababa#.a",
"a#cab.a.a.a.a#.a",
"a#cbababababa#.a",
"a#############.a",
"a.............aa",
"aaaaaaaaaaaaaaaa"
};
