/* XPM */
static char *Home[] = {
/* width height num_colors chars_per_pixel */
"    16    15        6            1",
/* colors */
". c #000000",
"# c #bf0000",
"a c #0000bf",
"b c None",
"c c #808080",
"d c #ffffff",
/* pixels */
"bbbbbbbbbbbbbbbb",
"bbbbbbb..bb..bbb",
"bbbbbb.##.b..bbb",
"bbbbb.####...bbb",
"bbbb.##cc##..bbb",
"bbb.##cbbb##.bbb",
"bb.##cbddbd##.bb",
"b..#cddddddd#..b",
"bb.dddddddddd.bb",
"bb.dddaaaaddd.bb",
"bb.dddabbaddd.bb",
"bb.dddabbaddd.bb",
"bb.dddabbaddd.bb",
"bb...aaaba....bb",
"bbbbbbbbbbbbbbbb"
};
