/* XPM */
static char *refresh[] = {
/* width height ncolors chars_per_pixel */
"16 16 14 1",
/* colors */
"  c #9F9F9F",
". c #DF9F3F",
"X c #FFFF9F",
"o c #9F7F3F",
"O c #9F9F5F",
"+ c #FFFF3F",
"@ c #FFFFFF",
"# c #BFBF9F",
"$ c #7F7F3F",
"% c #FFDF3F",
"& c #7F5F3F",
"* c #9F9F7F",
"= c #BFBFBF",
"- c None",
/* pixels */
"@@@@@@@@@@$@@@@@",
"@@@@@@@@@$$@@@@@",
"@@@@@@@@$@$@@@@@",
"@@@@@@@$@XO$O =@",
"@@ *o@&%+++++$ =",
"@ o#@@@&%%o&o+$ ",
" o#@@@@@&.&@*&%$",
" o#@@$@@@&&@#*.$",
"$.*#@$$@@@&@@#o ",
"$%&*@$@$@@@@@#o ",
" $+o&OX@$@@@#o @",
"= $+++++%&@o* @@",
"@= O&o%%&@@@@@@@",
"@@@@@&.&@@@@@@@@",
"@@@@@&&@@@@@@@@@",
"@@@@@&@@@@@@@@@@"
};
