/* XPM */
static char *Selected[] = {
/* width height num_colors chars_per_pixel */
"    16    15        5            1",
/* colors */
". c #000000",
"# c #000080",
"a c #808080",
"b c #c0c0c0",
"c c #ffffff",
/* pixels */
"bbbbbbb#b..bbbbb",
"bbbbbbb#acc.bbbb",
"bbbbb.a#cccc.bbb",
"bbb.acc#ccccc.bb",
"b..cc#c#c#cccc.b",
".ccccc###ccc..bb",
"b.ccccc#cc..c.bb",
"b..ccccc..cccc.b",
".cc.cc..cccc..bb",
"b.cc..cccc..cc.b",
".c.ccccc..cc..bb",
"b.c.cc..cc..bbbb",
"bb.c..cc..bbbbbb",
"bbb.cc..bbbbbbbb",
"bbbb..bbbbbbbbbb"
};
