/* XPM */
static char *Table[] = {
/* width height num_colors chars_per_pixel */
"    16    15        3            1",
/* colors */
". c #000080",
"# c #c0c0c0",
"a c #ffffff",
/* pixels */
"################",
"#...............",
"#.aa.aaaaaaaaaa.",
"#.aa.aaaaaaaaaa.",
"#...............",
"#.aa.a#a#a.a#a#.",
"#.aa.#a#a#.#a#a.",
"#...............",
"#.aa.#a#a#.#a#a.",
"#.aa.a#a#a.a#a#.",
"#...............",
"#.aa.a#a#a.a#a#.",
"#.aa.#a#a#.#a#a.",
"#.aa.a#a#a.a#a#.",
"#..............."
};

